<?xml version="1.0" encoding="UTF-8" standalone="no"?>
<!-- Created with Inkscape (http://www.inkscape.org/) -->

<svg
   width="5.2544599mm"
   height="5.0096402mm"
   viewBox="0 0 5.2544599 5.0096402"
   version="1.1"
   id="svg1"
   xml:space="preserve"
   xmlns="http://www.w3.org/2000/svg"
   xmlns:svg="http://www.w3.org/2000/svg"><defs
     id="defs1" /><g
     id="layer2"
     transform="translate(-143.27591,-154.69694)"><path
       d="m 145.78221,154.69707 c -1.37948,1e-5 -2.50629,1.12631 -2.5063,2.50579 1e-5,1.37949 1.12682,2.50372 2.5063,2.50372 1.17906,0 2.17141,-0.82132 2.435,-1.92133 h -0.71107 c -0.24131,0.72059 -0.91917,1.2361 -1.72393,1.2361 -1.00874,0 -1.82056,-0.80974 -1.82056,-1.81849 0,-1.00874 0.81182,-1.82056 1.82056,-1.82056 0.60398,0 1.13644,0.291 1.46658,0.74104 h -1.21543 v 0.87643 h 1.62057 v 0.004 h 0.87644 v -2.24895 h -0.87644 v 0.78651 c -0.45914,-0.51745 -1.12836,-0.84439 -1.87172,-0.84439 z"
       style="baseline-shift:baseline;display:inline;overflow:visible;opacity:1;vector-effect:none;fill:#e8eaed;fill-opacity:1;paint-order:markers stroke fill;enable-background:accumulate;stop-color:#000000;stop-opacity:1"
       id="path9" /></g></svg>
